<?xml version="1.0" encoding="UTF-8"?>
<svg width="274px" height="118px" viewBox="0 0 274 118" version="1.1" xmlns="http://www.w3.org/2000/svg" xmlns:xlink="http://www.w3.org/1999/xlink">
    <!-- Generator: Sketch 58 (84663) - https://sketch.com -->
    <title>Aon Powered by CoverWallet</title>
    <desc>Created with Sketch.</desc>
    <g id="Page-1" stroke="none" stroke-width="1" fill="none" fill-rule="evenodd">
        <g id="Desktop" transform="translate(-583.000000, -453.000000)" fill="#FFFFFF" fill-rule="nonzero">
            <g id="Aon-Powered-by-CoverWallet" transform="translate(583.000000, 453.000000)">
                <g id="aonbycw">
                    <g id="CW" transform="translate(124.642509, 90.412924)">
                        <g id="Group" transform="translate(72.320476, 0.000000)">
                            <polygon id="Shape" points="9.13717218 21.4835732 5.51131021 21.4835732 0.290068958 6.09602537 3.57751715 6.09602537 7.34841362 17.7472996 11.1193101 6.09602537 14.4067583 6.09602537 18.1776547 17.7472996 21.9485512 6.09602537 25.2359994 6.09602537 20.0147581 21.4835732 16.3888961 21.4835732 12.811379 10.9630134"></polygon>
                            <path d="M37.9990335,21.4835732 L35.098344,21.4835732 L35.098344,19.4187905 C33.8413785,20.9427968 32.1493095,21.7293807 30.0704821,21.7293807 C28.4751027,21.7293807 27.1697924,21.2869273 26.1545511,20.3528589 C25.1393098,19.467952 24.6075165,18.2389146 24.6075165,16.7149083 C24.6075165,15.1909019 25.1393098,14.0601875 26.2512407,13.3227651 C27.3631718,12.5853427 28.8618614,12.1920507 30.6989648,12.1920507 L34.808275,12.1920507 L34.808275,11.6021128 C34.808275,9.53732999 33.6963441,8.55410011 31.4724821,8.55410011 C30.0704821,8.55410011 28.6201371,9.09487654 27.0731028,10.1272679 L25.6711029,8.11164666 C27.5082062,6.63680181 29.5870336,5.89937937 31.9559303,5.89937937 C33.7446889,5.89937937 35.1950336,6.34183283 36.3069645,7.27590125 C37.4188957,8.20996964 37.9990335,9.63565298 37.9990335,11.6021128 L37.9990335,21.4835732 L37.9990335,21.4835732 Z M34.808275,15.7808399 L34.808275,14.502641 L31.2307578,14.502641 C28.958551,14.502641 27.7982751,15.2400634 27.7982751,16.7149083 C27.7982751,17.4523307 28.0883441,18.0422686 28.6684819,18.4355606 C29.24862,18.8288525 30.0221371,19.0254985 31.0373786,19.0254985 C32.0526199,19.0254985 32.9228268,18.7305295 33.6963441,18.1405916 C34.4215164,17.5506537 34.808275,16.7640697 34.808275,15.7808399 Z" id="Shape"></path>
                            <polygon id="Shape" points="43.5103437 21.4835732 40.3195852 21.4835732 40.3195852 0.0491614949 43.5103437 0.0491614949"></polygon>
                            <polygon id="Shape" points="49.1666885 21.4835732 45.97593 21.4835732 45.97593 0.0491614949 49.1666885 0.0491614949"></polygon>
                            <path d="M65.700619,15.2400634 L53.8561366,15.2400634 C53.9528262,16.3707778 54.4362744,17.2556847 55.3548261,17.9439456 C56.2733778,18.6322066 57.3369641,18.976337 58.5455846,18.976337 C60.4310331,18.976337 61.8813778,18.3863991 62.8482743,17.1573617 L64.6853777,19.172983 C63.0416535,20.8936353 60.9144813,21.7293807 58.3038606,21.7293807 C56.1766882,21.7293807 54.3879296,20.9919583 52.8892401,19.566275 C51.3905505,18.1405916 50.665378,16.2232933 50.665378,13.7652185 C50.665378,11.3071438 51.4388953,9.43900701 52.9375849,8.01332367 C54.4362744,6.58764031 56.225033,5.85021789 58.3038606,5.85021789 C60.3826883,5.85021789 62.1231018,6.48931732 63.5734468,7.76751619 C65.0237915,9.04571505 65.7489638,10.7663674 65.7489638,12.9786346 L65.700619,15.2400634 L65.700619,15.2400634 Z M53.8561366,12.6836657 L62.5582052,12.6836657 C62.5582052,11.4054668 62.1714468,10.3730754 61.3495847,9.68481449 C60.5760675,8.99655355 59.5608262,8.6524231 58.4005502,8.6524231 C57.2402745,8.6524231 56.1766882,8.99655355 55.2581365,9.73397597 C54.3395848,10.4713984 53.8561366,11.4546283 53.8561366,12.6836657 Z" id="Shape"></path>
                            <path d="M70.8735155,8.70158458 L70.8735155,16.5182623 C70.8735155,17.2556847 71.0668947,17.8456226 71.4536534,18.2880761 C71.840412,18.7305295 72.3722051,18.9271755 73.0490328,18.9271755 C73.7258602,18.9271755 74.4026879,18.583045 75.0311706,17.8947841 L76.3364809,20.2053744 C75.2245498,21.2377658 73.9675845,21.7293807 72.6139293,21.7293807 C71.2602742,21.7293807 70.0999982,21.2377658 69.1331017,20.3036974 C68.1662052,19.369629 67.682757,18.0422686 67.682757,16.4199393 L67.682757,8.70158458 L65.7973088,8.70158458 L65.7973088,6.09602537 L67.682757,6.09602537 L67.682757,1.27819887 L70.8735155,1.27819887 L70.8735155,6.09602537 L74.8377913,6.09602537 L74.8377913,8.70158458 L70.8735155,8.70158458 Z" id="Shape"></path>
                        </g>
                        <g id="Group" transform="translate(0.000000, 5.394286)">
                            <path d="M7.78351704,16.3216163 C5.65634468,16.3216163 3.86758612,15.5841939 2.36889649,14.1585105 C0.870206874,12.6836657 0.0966896528,10.8155289 0.0966896528,8.4557771 C0.0966896528,6.09602537 0.870206874,4.17872707 2.46558616,2.70388223 C4.06096542,1.22903737 5.99475848,0.491614949 8.26696531,0.491614949 C10.5391721,0.491614949 12.4729652,1.27819887 14.0683445,2.9005282 L12.1828962,5.26027996 C10.8775859,4.08040408 9.57227563,3.53962764 8.21862049,3.53962764 C6.91331017,3.53962764 5.75303433,3.98208109 4.73779299,4.86698798 C3.77089645,5.7518949 3.2874482,6.93177078 3.2874482,8.35745411 C3.2874482,9.78313748 3.77089645,10.9630134 4.73779299,11.9462433 C5.70468951,12.9294731 6.91331017,13.4210881 8.31531014,13.4210881 C9.7173101,13.4210881 11.0709652,12.7819887 12.3279307,11.4546283 L14.2133789,13.5194111 C12.3279307,15.3875479 10.2007584,16.3216163 7.78351704,16.3216163 Z" id="Shape"></path>
                            <path d="M28.3784131,14.011026 C26.8797234,15.5841939 24.9942752,16.3216163 22.7220684,16.3216163 C20.4498616,16.3216163 18.5644133,15.5350324 17.0173789,14.011026 C15.4703444,12.4870197 14.745172,10.6188829 14.745172,8.35745411 C14.745172,6.14518685 15.5186893,4.27705006 17.0173789,2.75304371 C18.5160685,1.22903737 20.4498616,0.442453453 22.7220684,0.442453453 C24.9942752,0.442453453 26.8797234,1.22903737 28.4267579,2.75304371 C29.9254475,4.27705006 30.6989648,6.14518685 30.6989648,8.35745411 C30.65062,10.6188829 29.9254475,12.4870197 28.3784131,14.011026 Z M19.2895857,12.0445662 C20.2081374,12.9786346 21.3200684,13.4702496 22.7220684,13.4702496 C24.1240683,13.4702496 25.2359994,12.9786346 26.1545511,12.0445662 C27.0731028,11.1104978 27.5082062,9.88146046 27.5082062,8.40661562 C27.5082062,6.93177078 27.0731028,5.70273339 26.1545511,4.768665 C25.2359994,3.8345966 24.1240683,3.34298166 22.7220684,3.34298166 C21.3200684,3.34298166 20.2081374,3.8345966 19.2895857,4.768665 C18.371034,5.70273339 17.9359306,6.93177078 17.9359306,8.40661562 C17.9359306,9.88146046 18.371034,11.1104978 19.2895857,12.0445662 Z" id="Shape"></path>
                            <polygon id="Shape" points="36.5970336 16.0758088 30.5055853 0.688260927 33.8413785 0.688260927 38.434137 12.3395352 43.0268954 0.688260927 46.3143436 0.688260927 40.2712404 16.0758088"></polygon>
                            <path d="M61.542964,9.83229896 L49.6984815,9.83229896 C49.7951711,10.9630134 50.2786194,11.8479203 51.1971711,12.5361812 C52.1157228,13.2244421 53.1793091,13.5685726 54.3879296,13.5685726 C56.2733778,13.5685726 57.7237228,12.9786346 58.6906193,11.7495973 L60.5277227,13.7652185 C58.8839985,15.4858709 56.7568263,16.3216163 54.1462056,16.3216163 C52.0190332,16.3216163 50.2302746,15.5841939 48.731585,14.1585105 C47.2328953,12.7328272 46.5560678,10.8155289 46.5560678,8.35745411 C46.5560678,5.94854088 47.3295851,4.03124258 48.8282746,2.60555922 C50.3269642,1.17987588 52.1157228,0.442453453 54.1945504,0.442453453 C56.2733778,0.442453453 58.0137916,1.08155289 59.4641366,2.35975176 C60.9144813,3.63795062 61.6396536,5.35860295 61.6396536,7.57087021 L61.6396536,9.83229896 L61.542964,9.83229896 Z M49.6984815,7.27590125 L58.4005502,7.27590125 C58.4005502,5.99770238 58.0137916,4.96531097 57.1919295,4.27705006 C56.3700676,3.58878912 55.4031711,3.24465865 54.2428952,3.24465865 C53.0826193,3.24465865 52.0190332,3.58878912 51.1004815,4.32621154 C50.133585,5.06363396 49.6984815,6.04686386 49.6984815,7.27590125 Z" id="Shape"></path>
                            <path d="M71.550343,3.73627361 C69.9549638,3.73627361 68.7946879,4.27705006 67.9728258,5.30944144 C67.1993088,6.34183283 66.7642053,7.76751619 66.7642053,9.48816851 L66.7642053,16.0758088 L63.5734468,16.0758088 L63.5734468,0.688260927 L66.7642053,0.688260927 L66.7642053,3.78543509 C67.2959984,2.80220521 67.9728258,2.01562129 68.8430327,1.42568335 C69.7132396,0.786583918 70.6801361,0.491614949 71.6470326,0.491614949 L71.6953776,3.78543509 C71.6953776,3.73627361 71.5986878,3.73627361 71.550343,3.73627361 Z" id="Shape"></path>
                        </g>
                    </g>
                    <path d="M101.824716,100.13574 C103.372448,100.13574 104.57443,100.655292 105.430699,101.694411 C106.286967,102.73353 106.715095,104.204125 106.715095,106.106241 C106.715095,108.008357 106.283384,109.485998 105.419951,110.539206 C104.556517,111.592415 103.358117,112.119012 101.824716,112.119012 C101.058016,112.119012 100.357606,111.979877 99.7234658,111.701605 C99.0893256,111.423332 98.5573007,110.995363 98.1273752,110.417683 L97.9983981,110.417683 L97.6222152,111.907666 L96.3431929,111.907666 L96.3431929,95.4650121 L98.1273752,95.4650121 L98.1273752,99.4594358 C98.1273752,100.354135 98.0987138,101.157238 98.0413904,101.868771 L98.1273752,101.868771 C98.9585645,100.713411 100.190999,100.13574 101.824716,100.13574 Z M101.566762,101.604589 C100.34864,101.604589 99.4708885,101.948022 98.9334816,102.634897 C98.3960746,103.321772 98.1273752,104.478875 98.1273752,106.106241 C98.1273752,107.733607 98.4032398,108.897755 98.9549777,109.59872 C99.5067153,110.299685 100.391632,110.650163 101.609755,110.650163 C102.706065,110.650163 103.522911,110.257417 104.060318,109.471913 C104.597725,108.68641 104.866424,107.557486 104.866424,106.085107 C104.866424,104.577504 104.597725,103.453863 104.060318,102.714151 C103.522911,101.97444 102.691734,101.604589 101.566762,101.604589 Z M107.961873,100.325951 L109.875032,100.325951 L112.454572,106.930488 C113.020641,108.438091 113.371742,109.526507 113.507885,110.19577 L113.593869,110.19577 C113.68702,109.836482 113.882275,109.221826 114.17964,108.351784 C114.477005,107.481742 115.449697,104.806491 117.097745,100.325951 L119.010904,100.325951 L113.948556,113.51389 C113.446976,114.817191 112.861212,115.741817 112.191244,116.287795 C111.521277,116.833773 110.699057,117.106757 109.724559,117.106757 C109.179986,117.106757 108.642588,117.046877 108.112346,116.927114 L108.112346,115.521669 C108.506445,115.606207 108.947112,115.648476 109.434361,115.648476 C110.659648,115.648476 111.533817,114.972178 112.056893,113.619562 L112.712526,111.97107 L107.961873,100.325951 Z" id="by"></path>
                    <path d="M10.4034276,100.959986 C10.4034276,102.523949 9.86065471,103.726843 8.7750927,104.568705 C7.6895307,105.410568 6.13644794,105.831493 4.11579787,105.831493 L2.26712725,105.831493 L2.26712725,111.907666 L0.439952799,111.907666 L0.439952799,96.4583344 L4.51347702,96.4583344 C8.44013035,96.4583344 10.4034276,97.9588701 10.4034276,100.959986 Z M2.26712725,104.288673 L3.91158426,104.288673 C5.53097047,104.288673 6.70250002,104.031539 7.42620804,103.517263 C8.14991603,103.002987 8.51176462,102.178749 8.51176462,101.044525 C8.51176462,100.023018 8.171412,99.2621828 7.49069654,98.7619967 C6.8099811,98.2618107 5.74951398,98.0117214 4.3092634,98.0117214 L2.26712725,98.0117214 L2.26712725,104.288673 Z M23.5913279,106.106241 C23.5913279,107.994268 23.1076689,109.468386 22.1403364,110.528639 C21.1730039,111.588893 19.836672,112.119012 18.1313007,112.119012 C17.0779831,112.119012 16.142909,111.875967 15.3260505,111.389871 C14.509192,110.903774 13.8786439,110.206342 13.4343875,109.297553 C12.9901311,108.388765 12.7680063,107.325005 12.7680063,106.106241 C12.7680063,104.218215 13.2480826,102.74762 14.2082497,101.694411 C15.1684167,100.641202 16.5011659,100.114606 18.2065373,100.114606 C19.8545852,100.114606 21.1640471,100.653531 22.1349623,101.731396 C23.1058775,102.809262 23.5913279,104.267529 23.5913279,106.106241 Z M14.6166769,106.106241 C14.6166769,107.585665 14.9176203,108.712828 15.519516,109.487764 C16.1214118,110.2627 17.0063286,110.650163 18.174293,110.650163 C19.3422574,110.650163 20.2289656,110.264461 20.8344441,109.493048 C21.4399225,108.721634 21.7426572,107.59271 21.7426572,106.106241 C21.7426572,104.633863 21.4399225,103.515506 20.8344441,102.751137 C20.2289656,101.986768 19.3350921,101.604589 18.1527968,101.604589 C16.9848324,101.604589 16.1034983,101.981484 15.5087679,102.735286 C14.9140376,103.489087 14.6166769,104.612728 14.6166769,106.106241 Z M36.3385567,111.907666 L34.1781915,105.112919 C34.0420485,104.697272 33.7876797,103.753273 33.4150776,102.280894 L33.3290928,102.280894 C33.0424757,103.513747 32.7916897,104.464791 32.5767269,105.134054 L30.3518732,111.907666 L28.2882409,111.907666 L25.0745636,100.325951 L26.9447305,100.325951 C27.7042654,103.235484 28.282865,105.451064 28.680546,106.972757 C29.0782273,108.494449 29.3057262,109.519463 29.3630496,110.047829 L29.4490341,110.047829 C29.5278539,109.646271 29.6550383,109.126719 29.8305913,108.489158 C30.0061441,107.851597 30.1584071,107.346135 30.2873848,106.972757 L32.4477499,100.325951 L34.3824051,100.325951 L36.4890299,106.972757 C36.8902937,108.184475 37.1625758,109.202444 37.3058842,110.026694 L37.391869,110.026694 C37.4205306,109.773079 37.4975577,109.382094 37.6229528,108.853729 C37.7483478,108.325363 38.4953321,105.482799 39.8639286,100.325951 L41.7125991,100.325951 L38.4559295,111.907666 L36.3385567,111.907666 Z M48.8170833,112.119012 C47.0758849,112.119012 45.7019349,111.597699 44.6951927,110.555057 C43.6884504,109.512416 43.1850868,108.064716 43.1850868,106.211914 C43.1850868,104.345022 43.6526238,102.862099 44.587712,101.763098 C45.5227999,100.664098 46.778522,100.114606 48.3549156,100.114606 C49.8309934,100.114606 50.9989402,100.591889 51.8587913,101.546469 C52.7186424,102.50105 53.1485615,103.760302 53.1485615,105.324264 L53.1485615,106.433826 L45.0337573,106.433826 C45.0695846,107.793487 45.4188939,108.825546 46.0816956,109.530033 C46.7444976,110.234521 47.6777803,110.586759 48.8815719,110.586759 C50.1498522,110.586759 51.4037828,110.326103 52.6434015,109.804782 L52.6434015,111.368736 C52.0128441,111.636441 51.4163313,111.828411 50.8538455,111.944652 C50.2913594,112.060892 49.6124455,112.119012 48.8170833,112.119012 Z M48.3334194,101.583455 C47.3875833,101.583455 46.6334335,101.88638 46.0709477,102.492239 C45.5084616,103.098098 45.1770658,103.936426 45.0767498,105.007247 L51.2354024,105.007247 C51.2354024,103.901201 50.9846164,103.054068 50.4830365,102.465821 C49.9814566,101.877574 49.2649249,101.583455 48.3334194,101.583455 Z M61.5643121,100.114606 C62.0873882,100.114606 62.5567166,100.156874 62.9723112,100.241413 L62.7251053,101.868771 C62.2378563,101.763098 61.8079372,101.710262 61.4353351,101.710262 C60.4823335,101.710262 59.6672785,102.090679 58.9901458,102.851526 C58.3130129,103.612372 57.9744516,104.559894 57.9744516,105.694118 L57.9744516,111.907666 L56.1902695,111.907666 L56.1902695,100.325951 L57.6627573,100.325951 L57.8669709,102.471104 L57.9529555,102.471104 C58.3900465,101.717303 58.9166974,101.13611 59.5329241,100.727507 C60.1491507,100.318904 60.8262733,100.114606 61.5643121,100.114606 Z M70.152032,112.119012 C68.4108334,112.119012 67.0368837,111.597699 66.0301414,110.555057 C65.0233991,109.512416 64.5200356,108.064716 64.5200356,106.211914 C64.5200356,104.345022 64.9875725,102.862099 65.9226605,101.763098 C66.8577487,100.664098 68.1134707,100.114606 69.6898643,100.114606 C71.1659422,100.114606 72.3338889,100.591889 73.19374,101.546469 C74.0535912,102.50105 74.4835103,103.760302 74.4835103,105.324264 L74.4835103,106.433826 L66.3687061,106.433826 C66.4045331,107.793487 66.7538424,108.825546 67.4166444,109.530033 C68.0794464,110.234521 69.012729,110.586759 70.2165204,110.586759 C71.484801,110.586759 72.7387316,110.326103 73.9783503,109.804782 L73.9783503,111.368736 C73.3477928,111.636441 72.75128,111.828411 72.188794,111.944652 C71.6263082,112.060892 70.9473943,112.119012 70.152032,112.119012 Z M69.6683682,101.583455 C68.722532,101.583455 67.9683822,101.88638 67.4058962,102.492239 C66.8434104,103.098098 66.5120145,103.936426 66.4116983,105.007247 L72.5703512,105.007247 C72.5703512,103.901201 72.3195649,103.054068 71.8179852,102.465821 C71.3164053,101.877574 70.5998736,101.583455 69.6683682,101.583455 Z M85.5432898,110.354279 L85.446557,110.354279 C84.622533,111.530773 83.3900983,112.119012 81.7492156,112.119012 C80.2086491,112.119012 79.0102498,111.601221 78.1539814,110.565625 C77.297713,109.530028 76.8695851,108.057671 76.8695851,106.14851 C76.8695851,104.23935 77.2995042,102.756426 78.1593553,101.699695 C79.0192065,100.642963 80.2158146,100.114606 81.7492156,100.114606 C83.3471056,100.114606 84.572375,100.685232 85.4250607,101.826502 L85.5647859,101.826502 L85.4895493,100.991688 L85.446557,100.178009 L85.446557,95.4650121 L87.2307391,95.4650121 L87.2307391,111.907666 L85.7797475,111.907666 L85.5432898,110.354279 Z M81.9749254,110.650163 C83.193048,110.650163 84.0761734,110.324342 84.6243285,109.672691 C85.1724834,109.02104 85.446557,107.969609 85.446557,106.518364 L85.446557,106.14851 C85.446557,104.507055 85.1689009,103.335862 84.6135803,102.634897 C84.0582597,101.933932 83.1715516,101.583455 81.9534293,101.583455 C80.9072772,101.583455 80.1065529,101.983245 79.5512323,102.782839 C78.9959119,103.582432 78.7182558,104.711356 78.7182558,106.169645 C78.7182558,107.649069 78.9941204,108.765664 79.5458583,109.519466 C80.0975959,110.273267 80.9072769,110.650163 81.9749254,110.650163 Z" id="Powered"></path>
                    <path d="M158.184616,36.7909026 C154.666885,32.6183968 149.012866,31.3066109 143.867327,32.9153647 C139.534004,34.0498248 136.143393,38.5235712 134.697827,42.2185781 C132.117183,48.6717545 135.066812,57.5038783 139.754495,60.2321372 C142.938115,62.0812431 146.61109,63.0992661 150.397685,62.0150127 C154.229278,60.8228683 157.995624,57.9023282 159.69318,54.2639374 C162.13883,49.0744771 162.578687,41.2635807 158.184616,36.7909026 Z M239.004684,17.8298236 L228.142129,76.909341 L210.182239,76.909341 L196.619794,47.2264395 C194.545379,57.0680406 192.91532,67.0677398 191.08952,76.909341 L173.001385,76.909341 C173.692107,72.3800465 174.637068,67.742861 175.0758,63.2691146 C169.233914,73.0476903 158.750468,78.7723336 147.068946,78.5950075 C138.544045,78.494594 128.143845,73.437594 123.395415,66.8444797 L118.747105,35.9566151 C122.891435,25.5841036 134.25797,17.529651 145.87762,16.6376791 C157.682887,15.9796496 167.792848,20.7503639 174.637068,30.0546454 C177.088343,33.4526844 178.402289,37.2684013 179.280878,41.2635807 L183.717697,17.8298236 L201.323226,17.8298236 L215.202908,47.7039382 C217.150204,37.8057207 219.034502,27.8476826 220.728682,17.8298236 L239.004684,17.8298236 Z M110.731808,0 L122.051095,76.909341 L104.115954,76.909341 L96.1389049,23.1976783 L95.9521627,23.0769684 L82.3863426,47.5437037 L96.8926241,47.5437037 L99.1537816,61.8077762 L74.5375388,61.8077762 L66.1206332,76.909341 L46.0885779,76.909341 L53.9385067,61.8077762 L42.8869589,61.8077762 L50.6120178,47.5437037 L61.9144303,47.5437037 L88.414971,0 L110.731808,0 L110.731808,0 Z" id="Aon"></path>
                </g>
            </g>
        </g>
    </g>
</svg>